<?xml version="1.0" encoding="iso-8859-1"?>
<!-- Generator: Adobe Illustrator 19.0.0, SVG Export Plug-In . SVG Version: 6.00 Build 0)  -->
<svg version="1.1" id="Capa_1" xmlns="http://www.w3.org/2000/svg" xmlns:xlink="http://www.w3.org/1999/xlink" x="0px" y="0px"
	 viewBox="0 0 512 512" style="enable-background:new 0 0 512 512;" xml:space="preserve">
<path style="fill:#E47500;" d="M304.504,249.315l-8.714,18.728c-11.365,24.421-19.959,56.115-26.402,88.129
	c-2.021,10.044-3.832,20.119-5.452,30.013c-2.621,16.017-4.742,31.564-6.433,45.7c-1.311,10.995-2.371,21.149-3.211,30.013
	c-2.041,21.439-2.801,35.415-2.821,35.876L250.731,512h-98.943l0.67-15.647c0.08-1.821,0.68-14.816,2.301-34.455
	c0.73-8.804,1.671-18.938,2.861-30.013c1.511-14.016,3.431-29.533,5.853-45.7c1.481-9.824,3.141-19.889,5.002-30.013
	c7.213-39.147,17.528-79.165,32.164-109.318l4.682-9.644l44.469,5.422L304.504,249.315z"/>
<path style="fill:#BF6000;" d="M304.504,249.315l-8.714,18.728c-11.365,24.421-19.959,56.115-26.402,88.129
	c-2.021,10.044-3.832,20.119-5.452,30.013c-2.621,16.017-4.742,31.564-6.433,45.7c-1.311,10.995-2.371,21.149-3.211,30.013
	c-2.041,21.439-2.801,35.415-2.821,35.876L250.731,512h-49.011c-0.52-21.84,0.55-115.661,48.071-269.368L304.504,249.315z"/>
<g>
	<path style="fill:#00AB5E;" d="M463.707,92.885c-15.394-18.131-37.694-31.032-62.793-36.323
		c-25.468-5.369-52.321-2.961-77.658,6.961c-25.338,9.922-46.685,26.391-61.733,47.625c-14.831,20.929-22.443,45.542-21.429,69.305
		l0.895,20.998l236.321-92.544L463.707,92.885z"/>
	<path style="fill:#00AB5E;" d="M284.2,106.778c-5.595-25.417-18.847-48.896-38.325-67.9
		c-19.479-19.003-43.277-31.674-68.823-36.641c-25.182-4.896-50.744-1.695-71.98,9.015l-18.765,9.464l181.656,177.236l8.998-18.993
		C287.145,157.464,289.716,131.83,284.2,106.778z"/>
	<path style="fill:#00AB5E;" d="M443.94,296.494c-5.363-29.129-19.521-56.363-40.94-78.758s-47.997-37.751-76.857-44.406
		c-28.383-6.546-57.5-3.926-81.989,7.379l-19.081,8.809l198.194,207.227l9.65-18.671
		C445.301,354.113,449.215,325.141,443.94,296.494z"/>
	<path style="fill:#00AB5E;" d="M273.982,177.916c-17.627-20.414-43.057-34.835-71.608-40.606
		c-29.03-5.868-59.579-2.87-88.339,8.671c-28.761,11.541-52.908,30.489-69.832,54.797c-16.642,23.905-25.052,51.905-23.678,78.84
		l1.069,20.99l266.122-106.786L273.982,177.916z"/>
</g>
<g>
	<path style="fill:#00CC71;" d="M507.031,219.69c-5.56-26.392-20.85-51.309-43.053-70.164
		c-22.576-19.171-50.766-31.315-81.522-35.117c-30.752-3.802-61.053,1.111-87.619,14.209c-26.125,12.88-47.023,33.325-58.842,57.567
		l-9.211,18.891l284.581,35.178L507.031,219.69z"/>
	<path style="fill:#00CC71;" d="M274.56,192.546c-1.099-26.948-12.036-54.061-30.798-76.341
		c-19.077-22.656-44.859-39.314-74.556-48.172s-60.388-9.047-88.763-0.545c-27.902,8.361-51.906,25.05-67.589,46.993L0.635,131.579
		l274.782,81.967L274.56,192.546z"/>
</g>
<path style="fill:#FFFFFF;" d="M250.491,254.817c-1.829,0-3.693-0.091-5.539-0.27l1.443-14.887l-0.005-15.057h0.726l0.731,0.07
	c1.776,0.173,3.512,0.173,5.287,0l2.896,29.873C254.183,254.726,252.319,254.817,250.491,254.817z"/>
<g>
	<path style="fill:#AD5E2E;" d="M269.389,356.172c-2.021,10.044-3.832,20.119-5.452,30.013H163.472l5.002-30.013H269.389z"/>
	<path style="fill:#AD5E2E;" d="M257.504,431.885c-1.311,10.995-2.371,21.149-3.211,30.013h-99.534
		c0.73-8.804,1.671-18.938,2.861-30.013H257.504z"/>
</g>
<g>
	<path style="fill:#804231;" d="M207.062,431.885h50.442c-1.311,10.995-2.371,21.149-3.211,30.013H203.78
		C204.57,452.944,205.631,442.93,207.062,431.885z"/>
	<path style="fill:#804231;" d="M269.389,356.172c-2.021,10.044-3.832,20.119-5.452,30.013h-49.762
		c1.721-9.514,3.672-19.519,5.893-30.013H269.389z"/>
</g>
<path style="fill:#FF9F00;" d="M293.962,202.748c0,28.294-23.019,51.322-51.313,51.322c-28.303,0-51.321-23.028-51.321-51.322
	s23.018-51.322,51.321-51.322C270.943,151.425,293.962,174.452,293.962,202.748z"/>
<path style="fill:#FF8700;" d="M293.962,202.748c0,28.294-23.019,51.322-51.313,51.322V151.425
	C270.943,151.425,293.962,174.452,293.962,202.748z"/>
<path style="fill:#AD5E2E;" d="M256.012,247.05c0,28.294-23.019,51.322-51.313,51.322c-28.303,0-51.321-23.028-51.321-51.322
	c0-28.294,23.018-51.322,51.321-51.322C232.993,195.728,256.012,218.756,256.012,247.05z"/>
<path style="fill:#804231;" d="M335.938,247.05c0,28.294-23.019,51.322-51.313,51.322c-28.303,0-51.322-23.028-51.322-51.322
	c0-28.294,23.019-51.322,51.322-51.322C312.919,195.728,335.938,218.756,335.938,247.05z"/>
<g>
</g>
<g>
</g>
<g>
</g>
<g>
</g>
<g>
</g>
<g>
</g>
<g>
</g>
<g>
</g>
<g>
</g>
<g>
</g>
<g>
</g>
<g>
</g>
<g>
</g>
<g>
</g>
<g>
</g>
</svg>
