<?xml version="1.0" encoding="iso-8859-1"?>
<!-- Generator: Adobe Illustrator 19.0.0, SVG Export Plug-In . SVG Version: 6.00 Build 0)  -->
<svg version="1.1" id="Capa_1" xmlns="http://www.w3.org/2000/svg" xmlns:xlink="http://www.w3.org/1999/xlink" x="0px" y="0px"
	 viewBox="0 0 512 512" style="enable-background:new 0 0 512 512;" xml:space="preserve">
<path style="fill:#BF6015;" d="M441.215,419.399C394.713,476.999,325.413,512,251.014,512c-74.099,0-143.699-35.001-190.201-92.601
	C14.013,361.5-3.986,286.5,11.314,213.9c4.499-21.301,10.199-42.9,17.1-65.4c2.699-7.8,11.1-12.301,18.9-9.901l203.699,10.499
	l210.601,11.1c7.8-2.399,16.199,2.401,18.3,10.201c4.2,15,7.8,29.399,10.8,43.5C506.014,286.5,488.015,361.5,441.215,419.399z"/>
<path style="fill:#994C10;" d="M441.215,419.399C394.713,476.999,325.413,512,251.014,512V149.099l210.601,11.1
	c7.8-2.399,16.199,2.401,18.3,10.201c4.2,15,7.8,29.399,10.8,43.5C506.014,286.5,488.015,361.5,441.215,419.399z"/>
<path style="fill:#994C0F;" d="M476.014,165c0,57.9-100.8,105-225,105s-225-47.1-225-105c0-54.901,90-99.901,204.901-104.401
	L251.014,240l20.099-179.401C386.014,65.099,476.014,110.099,476.014,165z"/>
<path style="fill:#713708;" d="M476.014,165c0,57.9-100.8,105-225,105v-30l20.099-179.401
	C386.014,65.099,476.014,110.099,476.014,165z"/>
<path style="fill:#E5E5E5;" d="M271.114,60.599c-6.6-0.299-13.201-0.599-20.1-0.599s-13.5,0.3-20.099,0.599
	c-26.393,1.21-51.152,4.942-73.38,10.558c-10.193,2.574-19.823,5.55-28.81,8.897C84.469,96.539,56.014,121.747,56.014,150
	c0,34.329,41.497,64.087,102.554,79.268c5.646,1.404,5.471-27.328,11.445-26.192c4.711,0.896,15.514,31.71,20.395,32.445
	c19.091,2.877,39.43,4.479,60.606,4.479c107.701,0,195-40.201,195-90C446.014,103.5,369.214,65.099,271.114,60.599z"/>
<path style="fill:#D9D9D9;" d="M446.014,150c0,49.799-87.299,90-195,90V60c6.899,0,13.5,0.3,20.099,0.599
	C369.214,65.099,446.014,103.5,446.014,150z"/>
<g>
	<circle style="fill:#994C0F;" cx="161.01" cy="315" r="15"/>
	<circle style="fill:#994C0F;" cx="161.01" cy="375" r="15"/>
	<circle style="fill:#994C0F;" cx="101.01" cy="345" r="15"/>
</g>
<path style="fill:#15B7BE;" d="M157.535,71.157l-6.995-34.975C146.366,15.22,127.806,0,106.419,0H41.014c-8.291,0-15,6.709-15,15
	s6.709,15,15,15h65.405c7.134,0,13.315,5.068,14.707,12.056l7.599,37.998l29.843,149.214c10.098,2.51,20.77,4.587,31.84,6.253
	L157.535,71.157z"/>
<path style="fill:#FEDB41;" d="M391.467,0h-80.453c-8.291,0-15,6.709-15,15c0,107.52,87.48,195,195,195c8.291,0,15-6.709,15-15
	v-80.806L391.467,0z"/>
<path style="fill:#FCBF29;" d="M491.014,0c-4.346,0-105.338,0-99.547,0c-3.376,9.538-5.453,19.576-5.453,30
	c0,49.629,40.371,90,90,90c10.464,0,20.431-2.395,30-5.806c0-4.96,0-103.195,0-99.194C506.014,6.709,499.305,0,491.014,0z"/>
<g>
</g>
<g>
</g>
<g>
</g>
<g>
</g>
<g>
</g>
<g>
</g>
<g>
</g>
<g>
</g>
<g>
</g>
<g>
</g>
<g>
</g>
<g>
</g>
<g>
</g>
<g>
</g>
<g>
</g>
</svg>
