<?xml version="1.0" encoding="iso-8859-1"?>
<!-- Generator: Adobe Illustrator 19.0.0, SVG Export Plug-In . SVG Version: 6.00 Build 0)  -->
<svg version="1.1" id="Capa_1" xmlns="http://www.w3.org/2000/svg" xmlns:xlink="http://www.w3.org/1999/xlink" x="0px" y="0px"
	 viewBox="0 0 512 512" style="enable-background:new 0 0 512 512;" xml:space="preserve">
<path style="fill:#C27C59;" d="M358.435,65.25c1.218-22.776-11.343-47.122-29.682-61.837c-8.711-6.989-21.597-2.712-24.762,7.998
	c-7.792,26.367-37.122,55.435-67.718,55.435h-61.161c-28.053,0-50.794,22.741-50.794,50.794l0,0
	c0,28.053,22.741,50.794,50.794,50.794h161.775c28.053,0,50.794-22.741,50.794-50.794l0,0c0-18.428-9.819-34.554-24.507-43.455
	C360.055,72.295,358.24,68.893,358.435,65.25z"/>
<path style="fill:#FFA6BB;" d="M358.435,65.25c1.218-22.776-11.343-47.122-29.682-61.837c-8.711-6.989-21.597-2.712-24.762,7.998
	c-7.792,26.367-37.122,55.435-67.718,55.435h-61.161c-28.053,0-50.794,22.741-50.794,50.794l0,0
	c0,28.053,22.741,50.794,50.794,50.794h161.775c28.053,0,50.794-22.741,50.794-50.794l0,0c0-18.428-9.819-34.554-24.507-43.455
	C360.055,72.295,358.24,68.893,358.435,65.25z"/>
<path style="opacity:0.1;enable-background:new    ;" d="M234.494,66.846h-59.382c-28.053,0-50.794,22.741-50.794,50.794l0,0
	c0,28.053,22.742,50.794,50.794,50.794h65.998C215.298,147.546,200.002,103.843,234.494,66.846z"/>
<path style="fill:#FFA6BB;" d="M373.849,147.546H138.151c-28.053,0-50.794,22.741-50.794,50.794l0,0
	c0,28.053,22.741,50.794,50.794,50.794h235.698c28.053,0,50.794-22.741,50.794-50.794l0,0
	C424.643,170.287,401.902,147.546,373.849,147.546z"/>
<path style="fill:#F985AC;" d="M373.849,147.546H138.151c-28.053,0-50.794,22.741-50.794,50.794l0,0
	c0,28.053,22.741,50.794,50.794,50.794h235.698c28.053,0,50.794-22.741,50.794-50.794l0,0
	C424.643,170.287,401.902,147.546,373.849,147.546z"/>
<path style="opacity:0.1;enable-background:new    ;" d="M222.928,147.546H138.15c-28.053,0-50.794,22.741-50.794,50.794l0,0
	c0,28.053,22.741,50.794,50.794,50.794h87.937C194.374,230.205,199.651,161.42,222.928,147.546z"/>
<path style="fill:#FFB655;" d="M343.314,512H168.686c-20.339,0-37.786-14.503-41.503-34.499L99.834,330.385h312.332l-27.349,147.116
	C381.1,497.497,363.653,512,343.314,512z"/>
<path style="opacity:0.1;enable-background:new    ;" d="M343.314,512H168.686c-20.339,0-37.786-14.503-41.503-34.499
	L99.834,330.385h312.332l-27.349,147.116C381.1,497.497,363.653,512,343.314,512z"/>
<path style="opacity:0.1;enable-background:new    ;" d="M412.166,330.385H99.834l27.349,147.116
	C130.9,497.497,148.347,512,168.686,512h59.597c-30.66-25.934-40.283-105.818-41.182-156.615h220.417L412.166,330.385z"/>
<path style="opacity:0.1;enable-background:new    ;" d="M407.289,356.621l-51.283,51.283l-77.518-77.518h-21.214l88.125,88.125
	l-88.187,88.186c-0.488,0.488-0.887,1.03-1.213,1.603c-0.325-0.572-0.725-1.115-1.213-1.603L166.6,418.511l88.125-88.125h-21.214
	l-77.518,77.518l-51.283-51.283l4.844,26.058l35.832,35.832l-24.598,24.598l3.325,17.888l31.879-31.879L238.876,512h34.247
	l82.883-82.883l31.879,31.879l3.325-17.888l-24.598-24.598l35.831-35.832L407.289,356.621z"/>
<path id="SVGCleanerId_0" style="fill:#FFB655;" d="M424.672,330.385H87.328c-15.897,0-28.784-12.887-28.784-28.784v-44.99
	c0-15.897,12.887-28.784,28.784-28.784h337.344c15.897,0,28.784,12.887,28.784,28.784v44.99
	C453.456,317.498,440.569,330.385,424.672,330.385z"/>
<g>
	<path id="SVGCleanerId_0_1_" style="fill:#FFB655;" d="M424.672,330.385H87.328c-15.897,0-28.784-12.887-28.784-28.784v-44.99
		c0-15.897,12.887-28.784,28.784-28.784h337.344c15.897,0,28.784,12.887,28.784,28.784v44.99
		C453.456,317.498,440.569,330.385,424.672,330.385z"/>
</g>
<g>
	<ellipse style="fill:#FF6E6E;" cx="197.43" cy="290.41" rx="21.611" ry="17.21"/>
	<ellipse style="fill:#FF6E6E;" cx="314.57" cy="290.41" rx="21.611" ry="17.21"/>
</g>
<g>
	<path style="fill:#414B58;" d="M210.025,280.746c-4.143,0-7.5-3.358-7.5-7.5v-7.632c0-4.142,3.357-7.5,7.5-7.5s7.5,3.358,7.5,7.5
		v7.632C217.525,277.388,214.168,280.746,210.025,280.746z"/>
	<path style="fill:#414B58;" d="M301.975,280.746c-4.143,0-7.5-3.358-7.5-7.5v-7.632c0-4.142,3.357-7.5,7.5-7.5s7.5,3.358,7.5,7.5
		v7.632C309.475,277.388,306.117,280.746,301.975,280.746z"/>
	<path style="fill:#414B58;" d="M256,286.606c-6.813,0-13.292-2.95-17.775-8.094c-2.722-3.123-2.395-7.86,0.727-10.582
		c3.122-2.721,7.859-2.396,10.582,0.727c1.634,1.875,3.99,2.95,6.467,2.95s4.833-1.075,6.467-2.95
		c2.722-3.122,7.457-3.448,10.582-0.727c3.122,2.722,3.448,7.459,0.727,10.582C269.292,283.656,262.814,286.606,256,286.606z"/>
</g>
<path style="opacity:0.05;enable-background:new    ;" d="M214.097,227.827H87.328c-15.897,0-28.784,12.887-28.784,28.784v44.99
	c0,15.897,12.887,28.784,28.784,28.784h133.207C186.835,312.047,190.85,247.077,214.097,227.827z"/>
<g>
</g>
<g>
</g>
<g>
</g>
<g>
</g>
<g>
</g>
<g>
</g>
<g>
</g>
<g>
</g>
<g>
</g>
<g>
</g>
<g>
</g>
<g>
</g>
<g>
</g>
<g>
</g>
<g>
</g>
</svg>
