<?xml version="1.0" encoding="iso-8859-1"?>
<!-- Generator: Adobe Illustrator 19.0.0, SVG Export Plug-In . SVG Version: 6.00 Build 0)  -->
<svg version="1.1" id="Capa_1" xmlns="http://www.w3.org/2000/svg" xmlns:xlink="http://www.w3.org/1999/xlink" x="0px" y="0px"
	 viewBox="0 0 512 512" style="enable-background:new 0 0 512 512;" xml:space="preserve">
<path style="fill:#FFDF8E;" d="M144.706,374.338l-15.132-25.903c29.879-17.454,39.425-56.001,39.518-56.389l29.204,6.862
	C197.81,300.994,185.901,350.275,144.706,374.338z"/>
<path style="fill:#FFC473;" d="M367.325,374.338c-41.195-24.064-53.104-73.345-53.59-75.431l29.214-6.817l-14.608,3.409
	l14.597-3.453c0.093,0.387,9.638,38.934,39.518,56.388L367.325,374.338z"/>
<path style="fill:#83A1C1;" d="M512,81.542l-0.26,4.76c-0.1,1.67-2.35,41.509-7.87,84.028
	c-10.53,81.108-23.27,98.958-34.339,105.728c-17.13,10.47-51.809,24.71-88.848,24.71c-15.47,0-31.339-2.48-46.529-8.76l-6.54-2.7
	l26.589-25.17c10.48-9.92,17.01-22.96,18.39-36.699l6.63-65.849l-0.03-0.89c-1.4-43.579-20.98-77.578-56.599-98.328
	c-4.56-2.66-9.15-4.96-13.67-6.95l42.699-31.729l0.85-0.48c2.24-1.25,55.279-30.189,100.368,0.73
	C492.9,51.413,508.82,76.462,509.48,77.512L512,81.542z"/>
<path style="fill:#ACC9E3;" d="M198.706,52.063l-6.49,8.73c-0.91,0.5-1.82,1.01-2.72,1.54
	c-35.649,20.75-55.249,54.769-56.659,98.358l-0.03,0.9l6.63,65.849c1.38,13.74,7.91,26.779,18.39,36.699l14.27,13.51l-0.03,0.42
	l5.72,13.87c-15.16,6.25-31.019,8.73-46.459,8.73c-37.049,0-71.729-14.25-88.858-24.71c-11.07-6.77-23.81-24.62-34.339-105.728
	c-5.51-42.519-7.77-82.358-7.87-84.028L0,81.442l2.52-4.03c0.66-1.05,16.58-26.099,56.639-53.569
	c45.089-30.929,98.128-1.98,100.368-0.73l0.85,0.48L198.706,52.063z"/>
<path style="fill:#CAE8FF;" d="M392.722,161.28l-7.36,73.059c-1.53,15.26-8.78,29.719-20.4,40.719l-53.869,50.999v60.039
	c0,4.95,4.02,8.97,8.97,8.97h46.549v107.318h-69.049c-14.62,0-28.739-3.22-41.549-9.33c-9.84-4.68-18.92-11.09-26.859-19.03
	c-18.26-18.28-28.309-42.589-28.279-68.439l0.14-79.458l-53.949-51.059c-11.62-11.01-18.87-25.469-20.4-40.729l-7.36-73.059l0.03-1
	c1.57-48.369,23.31-86.108,62.869-109.138c34.949-20.33,71.649-22.06,73.189-22.13l0.62-0.02l0.62,0.02
	c1.55,0.07,38.299,1.8,73.249,22.17c39.529,23.03,61.249,60.759,62.809,109.108L392.722,161.28z"/>
<path style="fill:#ACC9E3;" d="M392.722,161.28l-7.36,73.059c-1.53,15.26-8.78,29.719-20.4,40.719l-53.869,50.999v60.039
	c0,4.95,4.02,8.97,8.97,8.97h46.549v107.318h-69.049c-14.62,0-28.739-3.22-41.549-9.33V28.993l0.62,0.02
	c1.55,0.07,38.299,1.8,73.249,22.17c39.529,23.03,61.249,60.759,62.809,109.108L392.722,161.28z"/>
<circle style="fill:#2A2A2C;" cx="297.334" cy="212.445" r="18.719"/>
<circle style="fill:#57555C;" cx="214.696" cy="212.445" r="18.719"/>
<g>
</g>
<g>
</g>
<g>
</g>
<g>
</g>
<g>
</g>
<g>
</g>
<g>
</g>
<g>
</g>
<g>
</g>
<g>
</g>
<g>
</g>
<g>
</g>
<g>
</g>
<g>
</g>
<g>
</g>
</svg>
