<?xml version="1.0" encoding="iso-8859-1"?>
<!-- Generator: Adobe Illustrator 19.0.0, SVG Export Plug-In . SVG Version: 6.00 Build 0)  -->
<svg version="1.1" id="Capa_1" xmlns="http://www.w3.org/2000/svg" xmlns:xlink="http://www.w3.org/1999/xlink" x="0px" y="0px"
	 viewBox="0 0 512 512" style="enable-background:new 0 0 512 512;" xml:space="preserve">
<path style="fill:#FD0F7F;" d="M291.298,301.859c-8.507,17.014-18.716,37.432-18.716,37.432c-2.314,4.644-2.08,10.166,0.645,14.59
	C275.98,358.305,280.814,361,286,361h67.793c38.555,0,74.063-21.152,92.813-55.459c20.596-39.463,14.092-87.51-16.172-119.531
	L368,120h-7V45.214l-50.449,16.841c-3.135,0.776-5.947,2.549-7.969,5.054c-3.604,4.395-6.563,8.95-8.818,13.55
	c-18.457,34.673-12.686,77.095,14.326,105.542l58.418,61.641c3.252,4.863,3.486,9.858,0.234,15.615
	c-0.879,1.758-4.395,7.544-12.949,7.544H316c-5.684,0-10.869,3.208-13.418,8.291C302.582,279.291,297.374,289.707,291.298,301.859z"
	/>
<path style="fill:#FE8821;" d="M482,69.857c0-17.559-11.985-33.02-29.1-36.946C447.451,31.661,441.792,31,436,31h-30
	c-1.611,0-3.223,0.264-4.746,0.776L361,45.214V120h15h47.695c9.726,0,19.553,1.858,28.885,5.239
	c14.325,5.189,29.42-5.671,29.42-20.907L482,69.857L482,69.857z"/>
<path style="fill:#57555C;" d="M452,32.724v92.311c12.9,4.575,24.886,12.054,34.395,21.571c4.307,4.321,10.811,5.625,16.348,3.252
	C508.338,147.543,512,142.064,512,136v-30C512,70.12,485.922,40.057,452,32.724z"/>
<path style="fill:#3C3A41;" d="M226,512c-8.291,0-15-6.709-15-15V347c0-8.291,6.709-15,15-15s15.117,6.709,15.117,15
	c0,0.645-0.029,1.274-0.117,1.904V497C241,505.291,234.291,512,226,512z"/>
<path style="fill:#57555C;" d="M301,406v30c0,8.399-6.599,15-15,15s-15-6.601-15-15v-15H136c-6.299,0-12.297-4.2-14.099-10.201
	c-2.102-6.299,0-12.9,5.098-16.8l80.101-60c2.699-1.8,5.702-2.999,8.998-2.999h10.803c7.8,9.6,17.098,20.4,24.899,30h-30.597
	L181,391h105C294.401,391,301,397.599,301,406z"/>
<path style="fill:#FE318F;" d="M300,211L300,211c-20.052-27.213-51.094-49.092-86.598-56.7c-44.7-9.3-88.502,0.601-123.904,27.9
	C54.701,208.9,33.702,249.4,31.3,292.9c-0.3,5.7,2.402,10.8,7.2,13.801c2.402,1.5,5.098,2.1,7.8,2.1c2.699,0,5.098-0.601,7.5-2.1
	c6.599-3.6,14.099-5.7,22.2-5.7h15l30-15v-0.3c0.3-24.901,20.098-44.7,45-44.7h76.501L271,211H300z"/>
<path style="fill:#FE73B1;" d="M166,211c-41.4,0-75,33.6-75,75v15h90c42.598,0,79.797-30.3,88.198-72.001v-0.3
	C270.399,222.999,271,217,271,211H166z"/>
<path style="fill:#CAE8F9;" d="M361,0c-38.218,0-65.786,35.295-59.004,70.122C304.223,94.605,329.418,120,361,120
	c33.076,0,60-26.909,60-60C421,30.673,397.371,0,361,0z"/>
<path style="fill:#57555C;" d="M361,90c-16.26,0-28.301-13.594-29.121-22.603l-0.439-3.018c-1.553-8.027,0.762-16.538,6.387-23.364
	C341.225,36.899,348.725,30,361,30c19.57,0,30,17.417,30,30C391,76.538,377.553,90,361,90z"/>
<path style="fill:#FE73B1;" d="M241,211c0,32.999-27.001,60-60,60H76c-13.499,0-26.4,3.3-37.2,9.899C15.399,294.399,0,319.3,0,346
	v30c0,6,3.6,11.4,9.302,13.799C11.1,390.7,13.198,391,15,391c3.9,0,7.8-1.5,10.499-4.501C42.001,370.3,65.501,361,88.297,361
	h188.101c30,0,54.602-24.6,54.602-54.9c-0.201-34.916-11.555-68.344-31.252-95.1H241z"/>
<g>
</g>
<g>
</g>
<g>
</g>
<g>
</g>
<g>
</g>
<g>
</g>
<g>
</g>
<g>
</g>
<g>
</g>
<g>
</g>
<g>
</g>
<g>
</g>
<g>
</g>
<g>
</g>
<g>
</g>
</svg>
