<?xml version="1.0" encoding="utf-8"?>
<!-- Generator: Adobe Illustrator 19.2.0, SVG Export Plug-In . SVG Version: 6.00 Build 0)  -->
<svg version="1.1" id="Layer_1" xmlns="http://www.w3.org/2000/svg" xmlns:xlink="http://www.w3.org/1999/xlink" x="0px" y="0px"
	 viewBox="0 0 512 512" style="enable-background:new 0 0 512 512;" xml:space="preserve">
<style type="text/css">
	.st0{fill:#F2F2F4;}
	.st1{fill:#DFDFE1;}
	.st2{fill:#88888F;}
	.st3{fill:#56545A;}
	.st4{fill:#A5A5A5;}
	.st5{fill:#8C8C8C;}
</style>
<path class="st0" d="M512,58.7v394.6c0,32.4-26.3,58.7-58.7,58.7H58.7C26.3,512,0,485.7,0,453.3V58.7C0,26.3,26.3,0,58.7,0h394.6
	C485.7,0,512,26.3,512,58.7z"/>
<path class="st1" d="M512,58.7v394.6c0,32.4-26.3,58.7-58.7,58.7H256V0h197.3C485.7,0,512,26.3,512,58.7z"/>
<polygon class="st2" points="256,72.9 48.8,237.2 96.2,237.2 96.2,441 415.8,441 415.8,237.2 463.2,237.2 "/>
<polygon class="st3" points="256,72.9 256,441 415.8,441 415.8,237.2 463.2,237.2 "/>
<polygon class="st4" points="129.3,407.9 382.7,407.9 382.7,215.5 256,115 129.3,215.5 "/>
<polygon class="st5" points="256,115 256,407.9 382.7,407.9 382.7,215.5 "/>
</svg>
