<?xml version="1.0" encoding="utf-8"?>
<!-- Generator: Adobe Illustrator 19.2.0, SVG Export Plug-In . SVG Version: 6.00 Build 0)  -->
<svg version="1.1" id="Layer_1" xmlns="http://www.w3.org/2000/svg" xmlns:xlink="http://www.w3.org/1999/xlink" x="0px" y="0px"
	 viewBox="0 0 512 512" style="enable-background:new 0 0 512 512;" xml:space="preserve">
<style type="text/css">
	.st0{fill:#F2F2F4;}
	.st1{fill:#DFDFE1;}
	.st2{fill:#FF9400;}
	.st3{fill:#FF6849;}
	.st4{fill:#FFAB15;}
	.st5{fill:#FFDC40;}
	.st6{fill:#FFEA84;}
</style>
<path class="st0" d="M512,58.7v394.6c0,32.4-26.3,58.7-58.7,58.7H58.7C26.3,512,0,485.7,0,453.3V58.7C0,26.3,26.3,0,58.7,0h394.6
	C485.7,0,512,26.3,512,58.7z"/>
<path class="st1" d="M512,58.7v394.6c0,32.4-26.3,58.7-58.7,58.7H256V0h197.3C485.7,0,512,26.3,512,58.7z"/>
<g>
	<polygon class="st2" points="396,200.9 396,134 356,134 356,169.2 256,89.9 67.9,239 111,239 111,424 401,424 401,239 444.1,239 	
		"/>
	<polygon class="st3" points="396,200.9 396,134 356,134 356,169.2 256,89.9 256,424 401,424 401,239 444.1,239 	"/>
	<polygon class="st4" points="141,394 371,394 371,219.4 256,128.1 141,219.4 	"/>
	<polygon class="st2" points="256,128.1 256,394 371,394 371,219.4 	"/>
	<path class="st5" d="M341,364H171V233.8l85-67.4l85,67.4V364z"/>
	<polygon class="st4" points="256,166.4 256,364 341,364 341,233.8 	"/>
	<polygon class="st6" points="201,334 311,334 311,248.3 256,204.7 201,248.3 	"/>
	<polygon class="st5" points="256,204.7 256,334 311,334 311,248.3 	"/>
</g>
</svg>
