<?xml version="1.0" encoding="iso-8859-1"?>
<!-- Generator: Adobe Illustrator 19.0.0, SVG Export Plug-In . SVG Version: 6.00 Build 0)  -->
<svg version="1.1" id="Capa_1" xmlns="http://www.w3.org/2000/svg" xmlns:xlink="http://www.w3.org/1999/xlink" x="0px" y="0px"
	 viewBox="0 0 511.999 511.999" style="enable-background:new 0 0 511.999 511.999;" xml:space="preserve">
<path style="fill:#FEA832;" d="M97.971,498.673c0,0,0,0-0.015,0c-17.499-17.543-17.499-46.068,0-63.611l90.882-89.86
	c2.812-2.812,6.619-4.393,10.601-4.393l0,0c3.983,0,7.79,1.581,10.601,4.393l42.408,42.423c5.857,5.857,5.857,15.347,0,21.204
	l-90.852,89.846C144.037,516.234,115.514,516.216,97.971,498.673z"/>
<path style="fill:#FCBF29;" d="M13.157,413.873c0-0.015,0-0.015,0-0.015c-17.543-17.543-17.543-46.083,0-63.625l90.852-89.846
	c5.857-5.857,15.347-5.857,21.204,0l42.423,42.408c2.812,2.812,4.393,6.619,4.393,10.601c0,3.983-1.581,7.79-4.393,10.601
	l-90.867,89.86C59.246,431.352,30.7,431.387,13.157,413.873z"/>
<path style="fill:#B758CE;" d="M392.865,254.926c0,0-28.49,124.158-29.089,127.456c0,0-44.687,44.685-47.685,47.683
	c-17.395,17.395-45.885,17.695-63.578,0l-84.871-84.87L82.77,260.323c-17.393-17.395-17.393-45.885,0-63.578
	c1.5-1.499,14.396-14.396,16.794-16.794c0,0,125.058-29.091,128.357-29.99c0,0,41.086,26.391,82.472,52.482
	C350.581,228.234,391.066,253.725,392.865,254.926z"/>
<g>
	<path style="fill:#AA3DC8;" d="M467.84,149.961l-44.985,44.985l29.99,98.316l11.671-11.671
		c28.333-28.333,43.432-64.55,46.802-101.64L467.84,149.961z"/>
	<path style="fill:#AA3DC8;" d="M392.865,254.926c0,0-28.49,124.158-29.089,127.456c0,0-44.687,44.685-47.685,47.683
		c-17.395,17.395-45.885,17.695-63.578,0l-84.871-84.87l142.751-142.751C350.581,228.234,391.066,253.725,392.865,254.926z"/>
</g>
<path style="fill:#FE91C2;" d="M464.541,48.295c-64.479-64.178-168.842-64.178-233.321,0L99.565,179.95h128.357
	c8.398,0,14.995,6.597,14.995,14.995v89.969c0,24.89,20.092,44.985,44.985,44.985c24.892,0,44.985-20.094,44.985-44.985v-29.99
	c0-8.398,6.597-14.995,14.995-14.995s14.995,6.597,14.995,14.995v119.959c0,2.698,0.3,5.097,0.901,7.497
	c3.599,21.292,21.892,37.487,44.084,37.487c24.892,0,44.985-20.094,44.985-44.985V194.945c0-8.398,6.597-14.995,14.995-14.995
	h43.485c0.899-9.898,0.899-20.094,0-29.99C508.027,112.774,492.731,76.786,464.541,48.295z"/>
<path style="fill:#FE73B1;" d="M511.325,149.961c0.899,9.896,0.899,20.092,0,29.99H467.84c-8.398,0-14.995,6.597-14.995,14.995
	v179.939c0,24.89-20.092,44.985-44.985,44.985c-22.192,0-40.485-16.195-44.084-37.487c-0.601-2.4-0.901-4.799-0.901-7.497V254.926
	c0-8.398-6.597-14.995-14.995-14.995s-14.995,6.597-14.995,14.995v29.99c0,24.89-20.092,44.985-44.985,44.985
	c-24.893,0-44.985-20.094-44.985-44.985V269.92L464.541,48.296C492.731,76.786,508.027,112.774,511.325,149.961z"/>
<g>
</g>
<g>
</g>
<g>
</g>
<g>
</g>
<g>
</g>
<g>
</g>
<g>
</g>
<g>
</g>
<g>
</g>
<g>
</g>
<g>
</g>
<g>
</g>
<g>
</g>
<g>
</g>
<g>
</g>
</svg>
