<?xml version="1.0" encoding="iso-8859-1"?>
<!-- Generator: Adobe Illustrator 19.0.0, SVG Export Plug-In . SVG Version: 6.00 Build 0)  -->
<svg version="1.1" id="Capa_1" xmlns="http://www.w3.org/2000/svg" xmlns:xlink="http://www.w3.org/1999/xlink" x="0px" y="0px"
	 viewBox="0 0 511.999 511.999" style="enable-background:new 0 0 511.999 511.999;" xml:space="preserve">
<polygon style="fill:#FFBD86;" points="349.9,320.698 313.299,511.999 198.7,511.999 162.099,320.698 "/>
<path style="fill:#77DD00;" d="M421,197.999c0,24.899-20.099,45-45,45H136c-24.901,0-45-20.101-45-45
	c0-20.7,14.099-38.101,33.3-43.5c-2.1-5.099-3.3-10.8-3.3-16.5c0-20.7,14.099-38.101,33.3-43.5c-2.1-5.099-3.3-10.8-3.3-16.5
	c0-24.901,20.099-45,45-45h90c7.8,0,14.099-6,14.7-13.5L302.199,0L320.5,6.299C344.8,14.7,361,37.5,361,62.999
	c0,11.1-2.999,21.599-8.401,30.601C374.2,96.599,391,115.499,391,137.999c0,5.7-1.199,11.4-3.3,16.5
	C406.901,159.899,421,177.299,421,197.999z"/>
<path style="fill:#66BB00;" d="M421,197.999c0,24.899-20.099,45-45,45H256v-210h30c7.8,0,14.099-6,14.7-13.5L302.199,0L320.5,6.299
	C344.8,14.7,361,37.5,361,62.999c0,11.1-2.999,21.599-8.401,30.601C374.2,96.599,391,115.499,391,137.999c0,5.7-1.199,11.4-3.3,16.5
	C406.901,159.899,421,177.299,421,197.999z"/>
<polygon style="fill:#F6A96C;" points="256,320.698 349.9,320.698 313.299,511.999 256,511.999 "/>
<path style="fill:#FED2A4;" d="M84.999,212.999l49.2,120h243.6l49.2-120H84.999z"/>
<polygon style="fill:#FFBD86;" points="427,212.999 377.8,332.999 256,332.999 256,212.999 "/>
<g>
</g>
<g>
</g>
<g>
</g>
<g>
</g>
<g>
</g>
<g>
</g>
<g>
</g>
<g>
</g>
<g>
</g>
<g>
</g>
<g>
</g>
<g>
</g>
<g>
</g>
<g>
</g>
<g>
</g>
</svg>
