<?xml version="1.0" encoding="iso-8859-1"?>
<!-- Generator: Adobe Illustrator 19.0.0, SVG Export Plug-In . SVG Version: 6.00 Build 0)  -->
<svg version="1.1" id="Capa_1" xmlns="http://www.w3.org/2000/svg" xmlns:xlink="http://www.w3.org/1999/xlink" x="0px" y="0px"
	 viewBox="0 0 512 512" style="enable-background:new 0 0 512 512;" xml:space="preserve">
<path style="fill:#E4F7FF;" d="M150.508,256c0-28.188,10.979-54.686,30.915-74.612l10.654-10.648L85.645,64.308L74.997,74.957
	C26.634,123.318,0,187.614,0,256c0,68.374,26.62,132.655,74.955,181.002l10.648,10.651L192.03,341.225l-10.644-10.648
	C161.475,310.655,150.508,284.17,150.508,256z"/>
<path style="fill:#CBEDFD;" d="M437.003,74.957l-10.648-10.649L319.924,170.74l10.654,10.648
	c19.936,19.927,30.915,46.424,30.915,74.612c0,28.17-10.967,54.655-30.88,74.577l-10.644,10.648l106.428,106.428l10.648-10.651
	C485.38,388.655,512,324.374,512,256C512,187.614,485.366,123.318,437.003,74.957z"/>
<g>
	<path style="fill:#FF3980;" d="M341.261,319.925l-10.648,10.653c-19.928,19.936-46.425,30.915-74.613,30.915
		c-28.188,0-54.686-10.979-74.612-30.915l-10.648-10.653L64.308,426.355l10.649,10.648C123.318,485.366,187.614,512,256,512
		s132.682-26.634,181.043-74.997l10.649-10.648L341.261,319.925z"/>
	<path style="fill:#FF3980;" d="M437.002,74.955C388.655,26.62,324.374,0,256,0S123.345,26.62,74.998,74.955L64.347,85.603
		l106.428,106.429l10.648-10.644c19.923-19.914,46.407-30.881,74.577-30.881s54.655,10.967,74.577,30.88l10.648,10.644
		L447.653,85.603L437.002,74.955z"/>
</g>
<g>
	<path style="fill:#FF0059;" d="M256,150.508c28.17,0,54.655,10.967,74.577,30.88l10.648,10.644L447.653,85.603l-10.651-10.648
		C388.655,26.62,324.374,0,256,0V150.508z"/>
	<path style="fill:#FF0059;" d="M256,361.47c28.17,0,54.655-10.967,74.577-30.88l10.648-10.644l106.428,106.429l-10.651,10.648
		C388.655,485.358,324.374,511.978,256,511.978V361.47z"/>
</g>
<g>
</g>
<g>
</g>
<g>
</g>
<g>
</g>
<g>
</g>
<g>
</g>
<g>
</g>
<g>
</g>
<g>
</g>
<g>
</g>
<g>
</g>
<g>
</g>
<g>
</g>
<g>
</g>
<g>
</g>
</svg>
