<?xml version="1.0" encoding="utf-8"?>
<!-- Generator: Adobe Illustrator 19.2.0, SVG Export Plug-In . SVG Version: 6.00 Build 0)  -->
<svg version="1.1" id="Layer_1" xmlns="http://www.w3.org/2000/svg" xmlns:xlink="http://www.w3.org/1999/xlink" x="0px" y="0px"
	 viewBox="0 0 713 279.9" style="enable-background:new 0 0 713 279.9;" xml:space="preserve">
<style type="text/css">
	.st0{fill:url(#SVGID_1_);}
	.st1{fill:url(#SVGID_2_);}
	.st2{fill:url(#SVGID_3_);}
	.st3{fill:url(#SVGID_4_);}
	.st4{fill:url(#SVGID_5_);}
	.st5{fill:url(#SVGID_6_);}
	.st6{fill:url(#SVGID_7_);}
	.st7{fill:url(#SVGID_8_);}
	.st8{fill:#FEC810;}
</style>
<g>
	
		<linearGradient id="SVGID_1_" gradientUnits="userSpaceOnUse" x1="112.3496" y1="148.3247" x2="112.3496" y2="240.5871" gradientTransform="matrix(1 0 0 -1 0 282)">
		<stop  offset="0" style="stop-color:#FFB900"/>
		<stop  offset="1" style="stop-color:#FEDE00"/>
	</linearGradient>
	<path class="st0" d="M155.8,50.6c-15.6-15.6-31.1-8.8-43.5,2.3c-12.4-11.1-27.7-18.1-43.5-2.3c-12.3,12.3-12.3,32,0,44.2
		c43.3,39,43.3,38.9,43.3,38.9s0.1,0.2,43.6-38.9C168.2,82.6,168.1,62.9,155.8,50.6z"/>
	
		<linearGradient id="SVGID_2_" gradientUnits="userSpaceOnUse" x1="80.8136" y1="177.8433" x2="15.2557" y2="112.2853" gradientTransform="matrix(1 0 0 -1 0 282)">
		<stop  offset="0" style="stop-color:#FFB900"/>
		<stop  offset="1" style="stop-color:#FEDE00"/>
	</linearGradient>
	<path class="st1" d="M25.9,93.5c-15.6,15.6-8.8,31.1,2.3,43.5c-11.1,12.4-18.1,27.7-2.3,43.5c12.3,12.3,32,12.3,44.2,0
		c39-43.3,38.9-43.3,38.9-43.3s0.2-0.1-38.9-43.6C57.9,81.1,38.2,81.2,25.9,93.5z"/>
	
		<linearGradient id="SVGID_3_" gradientUnits="userSpaceOnUse" x1="103.2719" y1="153.6434" x2="150.7351" y2="235.8521" gradientTransform="matrix(1 0 0 -1 0 282)">
		<stop  offset="0" style="stop-color:#FF7500"/>
		<stop  offset="1" style="stop-color:#FEC810"/>
	</linearGradient>
	<path class="st2" d="M112.3,52.9L112.3,52.9v80.7c0.7-0.6,5.8-5,43.5-38.8c12.3-12.2,12.3-31.9,0-44.2
		C140.2,35,124.7,41.8,112.3,52.9z"/>
	
		<linearGradient id="SVGID_4_" gradientUnits="userSpaceOnUse" x1="112.2866" y1="141.7263" x2="112.2866" y2="49.4639" gradientTransform="matrix(1 0 0 -1 0 282)">
		<stop  offset="0" style="stop-color:#FFB900"/>
		<stop  offset="1" style="stop-color:#FEDE00"/>
	</linearGradient>
	<path class="st3" d="M68.8,223.3c15.6,15.6,31.1,8.8,43.5-2.3c12.4,11.1,27.7,18.1,43.5,2.3c12.3-12.3,12.3-32,0-44.2
		c-43.3-39-43.3-38.9-43.3-38.9s-0.1-0.2-43.6,38.9C56.5,191.4,56.5,211.1,68.8,223.3z"/>
	
		<linearGradient id="SVGID_5_" gradientUnits="userSpaceOnUse" x1="121.3598" y1="136.4018" x2="73.8966" y2="54.1931" gradientTransform="matrix(1 0 0 -1 0 282)">
		<stop  offset="0" style="stop-color:#FF7500"/>
		<stop  offset="1" style="stop-color:#FEC810"/>
	</linearGradient>
	<path class="st4" d="M112.3,221L112.3,221v-80.7c-0.7,0.6-5.8,5-43.5,38.8c-12.3,12.2-12.3,31.9,0,44.2
		C84.4,238.9,99.9,232.1,112.3,221z"/>
	
		<linearGradient id="SVGID_6_" gradientUnits="userSpaceOnUse" x1="78.095" y1="127.2594" x2="37.9805" y2="196.7399" gradientTransform="matrix(1 0 0 -1 0 282)">
		<stop  offset="0" style="stop-color:#FF7500"/>
		<stop  offset="1" style="stop-color:#FEC810"/>
	</linearGradient>
	<path class="st5" d="M28.3,136.9L28.3,136.9h80.7c-0.6-0.7-5-5.8-38.8-43.5c-12.2-12.3-31.9-12.3-44.2,0
		C10.3,109.1,17.2,124.6,28.3,136.9z"/>
	
		<linearGradient id="SVGID_7_" gradientUnits="userSpaceOnUse" x1="115.61" y1="144.9867" x2="207.8724" y2="144.9867" gradientTransform="matrix(1 0 0 -1 0 282)">
		<stop  offset="0" style="stop-color:#FFB900"/>
		<stop  offset="1" style="stop-color:#FEDE00"/>
	</linearGradient>
	<path class="st6" d="M198.7,180.5c15.6-15.6,8.8-31.1-2.3-43.5c11.1-12.4,18.1-27.7,2.3-43.5c-12.3-12.3-32-12.3-44.2,0
		c-39,43.3-38.9,43.3-38.9,43.3s-0.2,0.1,38.9,43.6C166.7,192.8,186.4,192.8,198.7,180.5z"/>
	
		<linearGradient id="SVGID_8_" gradientUnits="userSpaceOnUse" x1="115.6877" y1="118.6366" x2="207.8065" y2="118.6366" gradientTransform="matrix(1 0 0 -1 0 282)">
		<stop  offset="0" style="stop-color:#FF7500"/>
		<stop  offset="1" style="stop-color:#FEC810"/>
	</linearGradient>
	<path class="st7" d="M196.3,137L196.3,137h-80.7c0.6,0.7,5,5.8,38.8,43.5c12.2,12.3,31.9,12.3,44.2,0
		C214.3,164.9,207.4,149.4,196.3,137z"/>
</g>
<g>
	<path class="st8" d="M256,123.6c0.1-5.6,1.1-10.9,2.9-15.8c1.8-5,4.5-9.2,8-12.9c3.5-3.6,7.8-6.5,12.9-8.7c5.1-2.1,11-3.2,17.6-3.2
		c6.6,0,12.4,1.1,17.5,3.2c5.1,2.2,9.4,5.1,12.9,8.7c3.5,3.7,6.2,8,8,12.9c1.8,4.9,2.8,10.2,2.9,15.8c0.3,8.9,0.3,17.8,0,26.7
		c-0.2,5.6-1.2,10.9-3.1,15.8c-1.9,5-4.5,9.3-8,13c-3.5,3.7-7.8,6.6-12.8,8.7c-5.1,2.1-10.9,3.2-17.5,3.2c-6.6,0-12.4-1-17.5-3.2
		c-5.1-2.1-9.3-5-12.8-8.7c-3.5-3.7-6.2-8-8-13c-1.9-5-2.9-10.2-3.1-15.8C255.7,141.4,255.7,132.5,256,123.6z M324.5,124.4
		c-0.2-4.7-1-8.8-2.3-12.3c-1.3-3.5-3.2-6.4-5.6-8.7c-2.4-2.3-5.2-4-8.5-5.2c-3.3-1.1-6.8-1.7-10.7-1.7c-3.9,0-7.5,0.6-10.7,1.7
		c-3.3,1.2-6.1,2.9-8.5,5.2c-2.4,2.3-4.3,5.2-5.7,8.7c-1.4,3.5-2.2,7.6-2.2,12.3c-0.2,4.5-0.3,8.7-0.3,12.6s0.1,8.1,0.3,12.6
		c0.1,4.7,0.8,8.8,2.2,12.3c1.4,3.5,3.3,6.4,5.7,8.7c2.4,2.3,5.2,4,8.5,5.2c3.2,1.2,6.8,1.7,10.7,1.7c3.9,0,7.5-0.6,10.7-1.7
		c3.2-1.1,6.1-2.9,8.5-5.2c2.4-2.3,4.3-5.2,5.6-8.7c1.4-3.5,2.1-7.6,2.3-12.3c0.2-4.5,0.3-8.7,0.3-12.6S324.7,128.9,324.5,124.4z"/>
	<path class="st8" d="M428.3,185.4c0,1.1-0.4,2.1-1.2,2.8c-0.8,0.8-1.8,1.2-2.8,1.2h-5.5c-1.1,0-2.1-0.4-2.9-1.2
		c-0.8-0.8-1.2-1.7-1.2-2.8v-39.6c0-7.7-1.9-13.4-5.6-17.3c-3.7-3.8-8.8-5.7-15.4-5.7c-6.3,0-11.4,1.9-15.2,5.7
		c-3.9,3.8-5.8,9.6-5.8,17.3v39.6c0,1.1-0.4,2.1-1.2,2.8c-0.8,0.8-1.8,1.2-2.9,1.2h-5.5c-1.1,0-2.1-0.4-2.8-1.2
		c-0.8-0.8-1.2-1.7-1.2-2.8V87c0-1.1,0.4-2,1.2-2.8c0.8-0.8,1.7-1.2,2.8-1.2h5.5c1.1,0,2,0.4,2.9,1.2c0.8,0.8,1.2,1.8,1.2,2.8v33.2
		c1.9-2.5,4.7-4.8,8.5-7c3.8-2.1,8.7-3.2,14.8-3.2c4.7,0,9,0.8,13,2.3c4,1.6,7.4,3.8,10.3,6.6c2.9,2.9,5.1,6.4,6.7,10.6
		c1.6,4.2,2.4,8.9,2.4,14.1V185.4z"/>
	<path class="st8" d="M444.5,169.8c0-4,0.8-7.5,2.4-10.5c1.6-3,3.8-5.5,6.6-7.6c2.8-2.1,6.1-3.8,9.8-5.1c3.8-1.3,7.7-2.3,11.9-3
		l21.1-3.5v-1.9c0-5.1-1.7-8.9-5-11.5c-3.4-2.6-7.5-3.8-12.5-3.8c-4.4,0-7.7,0.8-10,2.4c-2.2,1.6-4.2,3.5-5.8,5.7
		c-0.6,0.8-1.3,1.4-2,1.6c-0.7,0.3-1.6,0.5-2.8,0.5h-4.5c-1.1,0-2.1-0.4-2.9-1.2c-0.9-0.8-1.2-1.7-1.1-2.9c0.2-2.2,1.1-4.4,2.6-6.8
		c1.5-2.3,3.6-4.3,6.3-6.1c2.6-1.8,5.7-3.3,9.2-4.4c3.4-1.1,7.1-1.7,11-1.7c4.5,0,8.7,0.7,12.5,2c3.8,1.3,7.1,3.2,9.9,5.7
		c2.8,2.5,4.9,5.6,6.5,9.3c1.5,3.7,2.3,7.9,2.3,12.8v45.8c0,1.1-0.4,2.1-1.2,2.8c-0.8,0.8-1.8,1.2-2.8,1.2h-5.5
		c-1.1,0-2.1-0.4-2.9-1.2c-0.8-0.8-1.2-1.7-1.2-2.8v-6.2c-0.9,1.9-2.3,3.6-4.2,5c-1.9,1.5-4.1,2.7-6.5,3.7c-2.5,1-5,1.7-7.7,2.2
		c-2.7,0.5-5.1,0.8-7.4,0.8c-3.9,0-7.5-0.6-10.7-1.7c-3.3-1.1-6-2.6-8.2-4.4c-2.2-1.8-4-4.1-5.2-6.7
		C445.2,175.6,444.5,172.8,444.5,169.8z M472.1,178.1c3.6,0,6.9-0.5,9.9-1.6c3-1.1,5.6-2.6,7.7-4.6c2.1-2,3.8-4.3,5-7
		c1.1-2.7,1.7-5.7,1.7-9v-3.8l-17.7,2.9c-6.3,1-11.3,2.6-15,4.8c-3.7,2.2-5.6,5.1-5.6,8.5c0,1.1,0.2,2.2,0.8,3.3
		c0.5,1.1,1.3,2.2,2.4,3.1c1.1,1,2.5,1.8,4.3,2.4C467.4,177.8,469.5,178.1,472.1,178.1z"/>
	<path class="st8" d="M601.3,185.4c0,1.1-0.4,2.1-1.2,2.8c-0.8,0.8-1.8,1.2-2.8,1.2h-5.5c-1.1,0-2.1-0.4-2.9-1.2
		c-0.8-0.8-1.2-1.7-1.2-2.8v-39.6c0-7.7-1.9-13.4-5.6-17.3c-3.7-3.8-8.8-5.7-15.4-5.7c-6.3,0-11.4,1.9-15.2,5.7
		c-3.9,3.8-5.8,9.6-5.8,17.3v39.6c0,1.1-0.4,2.1-1.2,2.8c-0.8,0.8-1.8,1.2-2.9,1.2H536c-1.1,0-2.1-0.4-2.8-1.2
		c-0.8-0.8-1.2-1.7-1.2-2.8v-69.9c0-1.1,0.4-2,1.2-2.8c0.8-0.8,1.7-1.2,2.8-1.2h5.5c1.1,0,2,0.4,2.9,1.2c0.8,0.8,1.2,1.8,1.2,2.8
		v4.7c1.9-2.5,4.7-4.8,8.5-7c3.8-2.1,8.7-3.2,14.8-3.2c4.7,0,9,0.8,13,2.3c4,1.6,7.4,3.8,10.3,6.6c2.9,2.9,5.1,6.4,6.7,10.6
		c1.6,4.2,2.4,8.9,2.4,14.1V185.4z"/>
	<path class="st8" d="M617.5,169.8c0-4,0.8-7.5,2.4-10.5c1.6-3,3.8-5.5,6.6-7.6c2.8-2.1,6.1-3.8,9.8-5.1c3.8-1.3,7.7-2.3,11.9-3
		l21.1-3.5v-1.9c0-5.1-1.7-8.9-5-11.5c-3.4-2.6-7.5-3.8-12.5-3.8c-4.4,0-7.7,0.8-10,2.4c-2.2,1.6-4.2,3.5-5.8,5.7
		c-0.6,0.8-1.3,1.4-2,1.6c-0.7,0.3-1.6,0.5-2.8,0.5h-4.5c-1.1,0-2.1-0.4-2.9-1.2c-0.9-0.8-1.2-1.7-1.1-2.9c0.2-2.2,1.1-4.4,2.6-6.8
		c1.5-2.3,3.6-4.3,6.3-6.1c2.6-1.8,5.7-3.3,9.2-4.4c3.4-1.1,7.1-1.7,11-1.7c4.5,0,8.7,0.7,12.5,2c3.8,1.3,7.1,3.2,9.9,5.7
		c2.8,2.5,4.9,5.6,6.5,9.3c1.5,3.7,2.3,7.9,2.3,12.8v45.8c0,1.1-0.4,2.1-1.2,2.8c-0.8,0.8-1.8,1.2-2.8,1.2h-5.5
		c-1.1,0-2.1-0.4-2.9-1.2c-0.8-0.8-1.2-1.7-1.2-2.8v-6.2c-0.9,1.9-2.3,3.6-4.2,5c-1.9,1.5-4.1,2.7-6.5,3.7c-2.5,1-5,1.7-7.7,2.2
		c-2.7,0.5-5.1,0.8-7.4,0.8c-3.9,0-7.5-0.6-10.7-1.7c-3.3-1.1-6-2.6-8.2-4.4c-2.2-1.8-4-4.1-5.2-6.7
		C618.1,175.6,617.5,172.8,617.5,169.8z M645.1,178.1c3.6,0,6.9-0.5,9.9-1.6c3-1.1,5.6-2.6,7.7-4.6c2.1-2,3.8-4.3,5-7
		c1.1-2.7,1.7-5.7,1.7-9v-3.8l-17.7,2.9c-6.3,1-11.3,2.6-15,4.8c-3.7,2.2-5.6,5.1-5.6,8.5c0,1.1,0.2,2.2,0.8,3.3
		c0.5,1.1,1.3,2.2,2.4,3.1c1.1,1,2.5,1.8,4.3,2.4C640.3,177.8,642.5,178.1,645.1,178.1z"/>
</g>
</svg>
