<?xml version="1.0" encoding="utf-8"?>
<!-- Generator: Adobe Illustrator 19.2.0, SVG Export Plug-In . SVG Version: 6.00 Build 0)  -->
<svg version="1.1" id="Layer_1" xmlns="http://www.w3.org/2000/svg" xmlns:xlink="http://www.w3.org/1999/xlink" x="0px" y="0px"
	 viewBox="0 0 279.9 279.9" style="enable-background:new 0 0 279.9 279.9;" xml:space="preserve">
<style type="text/css">
	.st0{fill:url(#SVGID_1_);}
	.st1{fill:url(#SVGID_2_);}
	.st2{fill:url(#SVGID_3_);}
	.st3{fill:url(#SVGID_4_);}
	.st4{fill:url(#SVGID_5_);}
	.st5{fill:url(#SVGID_6_);}
	.st6{fill:url(#SVGID_7_);}
	.st7{fill:url(#SVGID_8_);}
</style>
<g>
	
		<linearGradient id="SVGID_1_" gradientUnits="userSpaceOnUse" x1="139.9053" y1="146.75" x2="139.9053" y2="278.1849" gradientTransform="matrix(1 0 0 -1 0 282)">
		<stop  offset="0" style="stop-color:#FFB900"/>
		<stop  offset="1" style="stop-color:#FEDE00"/>
	</linearGradient>
	<path class="st0" d="M201.8,16.9c-22.2-22.2-44.2-12.5-61.9,3.3C122.2,4.4,100.4-5.5,78,16.9c-17.5,17.5-17.6,45.6,0,62.9
		c61.7,55.5,61.7,55.4,61.7,55.4s0.1,0.2,62.2-55.4C219.4,62.5,219.3,34.4,201.8,16.9z"/>
	
		<linearGradient id="SVGID_2_" gradientUnits="userSpaceOnUse" x1="94.9798" y1="188.8015" x2="1.5875" y2="95.4091" gradientTransform="matrix(1 0 0 -1 0 282)">
		<stop  offset="0" style="stop-color:#FFB900"/>
		<stop  offset="1" style="stop-color:#FEDE00"/>
	</linearGradient>
	<path class="st1" d="M16.8,78c-22.2,22.2-12.5,44.2,3.3,61.9c-15.8,17.7-25.8,39.5-3.3,61.9c17.5,17.5,45.6,17.6,62.9,0
		c55.5-61.7,55.4-61.7,55.4-61.7s0.2-0.1-55.4-62.2C62.4,60.4,34.3,60.5,16.8,78z"/>
	
		<linearGradient id="SVGID_3_" gradientUnits="userSpaceOnUse" x1="126.9733" y1="154.3269" x2="194.5884" y2="271.4395" gradientTransform="matrix(1 0 0 -1 0 282)">
		<stop  offset="0" style="stop-color:#FF7500"/>
		<stop  offset="1" style="stop-color:#FEC810"/>
	</linearGradient>
	<path class="st2" d="M139.9,20.2L139.9,20.2v114.9c1-0.9,8.3-7.2,61.9-55.3c17.6-17.4,17.5-45.5,0-62.9
		C179.6-5.3,157.5,4.4,139.9,20.2z"/>
	
		<linearGradient id="SVGID_4_" gradientUnits="userSpaceOnUse" x1="139.8155" y1="137.35" x2="139.8155" y2="5.9151" gradientTransform="matrix(1 0 0 -1 0 282)">
		<stop  offset="0" style="stop-color:#FFB900"/>
		<stop  offset="1" style="stop-color:#FEDE00"/>
	</linearGradient>
	<path class="st3" d="M77.9,263c22.2,22.2,44.2,12.5,61.9-3.3c17.7,15.8,39.5,25.8,61.9,3.3c17.5-17.5,17.6-45.6,0-62.9
		C140,144.5,140,144.6,140,144.6s-0.1-0.2-62.2,55.4C60.4,217.4,60.4,245.5,77.9,263z"/>
	
		<linearGradient id="SVGID_5_" gradientUnits="userSpaceOnUse" x1="152.7409" y1="129.7649" x2="85.1259" y2="12.6522" gradientTransform="matrix(1 0 0 -1 0 282)">
		<stop  offset="0" style="stop-color:#FF7500"/>
		<stop  offset="1" style="stop-color:#FEC810"/>
	</linearGradient>
	<path class="st4" d="M139.8,259.7L139.8,259.7V144.8c-1,0.9-8.3,7.2-61.9,55.3c-17.5,17.4-17.5,45.5,0,62.9
		C100.1,285.2,122.2,275.5,139.8,259.7z"/>
	
		<linearGradient id="SVGID_6_" gradientUnits="userSpaceOnUse" x1="91.1069" y1="116.7409" x2="33.9607" y2="215.7212" gradientTransform="matrix(1 0 0 -1 0 282)">
		<stop  offset="0" style="stop-color:#FF7500"/>
		<stop  offset="1" style="stop-color:#FEC810"/>
	</linearGradient>
	<path class="st5" d="M20.1,139.9L20.1,139.9H135c-0.9-1-7.2-8.3-55.3-61.9c-17.4-17.6-45.5-17.5-62.9,0
		C-5.4,100.2,4.3,122.3,20.1,139.9z"/>
	
		<linearGradient id="SVGID_7_" gradientUnits="userSpaceOnUse" x1="144.55" y1="141.9947" x2="275.9849" y2="141.9947" gradientTransform="matrix(1 0 0 -1 0 282)">
		<stop  offset="0" style="stop-color:#FFB900"/>
		<stop  offset="1" style="stop-color:#FEDE00"/>
	</linearGradient>
	<path class="st6" d="M262.9,201.9c22.2-22.2,12.5-44.2-3.3-61.9c15.8-17.7,25.8-39.5,3.3-61.9c-17.5-17.5-45.6-17.6-62.9,0
		c-55.5,61.7-55.4,61.7-55.4,61.7s-0.2,0.1,55.4,62.2C217.3,219.5,245.4,219.4,262.9,201.9z"/>
	
		<linearGradient id="SVGID_8_" gradientUnits="userSpaceOnUse" x1="144.6606" y1="104.4569" x2="275.891" y2="104.4569" gradientTransform="matrix(1 0 0 -1 0 282)">
		<stop  offset="0" style="stop-color:#FF7500"/>
		<stop  offset="1" style="stop-color:#FEC810"/>
	</linearGradient>
	<path class="st7" d="M259.6,140L259.6,140H144.7c0.9,1,7.2,8.3,55.3,61.9c17.4,17.6,45.5,17.5,62.9,0
		C285.1,179.7,275.4,157.6,259.6,140z"/>
</g>
</svg>
