<?xml version="1.0" encoding="iso-8859-1"?>
<!-- Generator: Adobe Illustrator 19.0.0, SVG Export Plug-In . SVG Version: 6.00 Build 0)  -->
<svg version="1.1" id="Capa_1" xmlns="http://www.w3.org/2000/svg" xmlns:xlink="http://www.w3.org/1999/xlink" x="0px" y="0px"
	 viewBox="0 0 512.003 512.003" style="enable-background:new 0 0 512.003 512.003;" xml:space="preserve">
<path style="fill:#0CA656;" d="M509.744,22.542L436.68,158.476l-73.464,4.198l5.397-22.489l14.695-60.571L489.056,2.151
	c5.997-3.598,12.593-2.4,17.092,1.499C511.544,7.85,513.942,15.346,509.744,22.542z"/>
<path style="fill:#0A8C4B;" d="M509.744,22.542L436.68,158.476l-73.464,4.198l5.397-22.489L506.146,3.652
	C511.544,7.85,513.942,15.346,509.744,22.542z"/>
<path style="fill:#32D736;" d="M395.301,166.573l-66.269,26.387l-5.695-7.496l-40.481-52.474
	c20.99-24.588,38.68-51.876,53.075-80.66l9.896-19.491c2.398-5.097,7.794-8.395,13.492-8.395c5.397,0,10.796,3.298,13.194,8.395
	l11.694,22.789c8.397,16.792,13.493,35.082,15.293,53.673C401.898,128.191,400.397,147.681,395.301,166.573z"/>
<path style="fill:#0CA656;" d="M395.301,166.573l-66.269,26.387l-5.695-7.496l18.591-18.591l57.571-57.573
	C401.898,128.191,400.397,147.681,395.301,166.573z"/>
<path style="fill:#32D736;" d="M499.932,141.419l-17.818-3.558c-48.448-9.692-99.59,0.894-140.219,29.078
	c-6.794,4.715-8.492,14.056-3.763,20.864l33.089,51.259c2.958,3.25,7.014,4.905,11.084,4.905c3.602,0,7.218-1.288,10.088-3.909
	c24.114-21.932,51.069-40.424,80.132-54.934l31.172-15.593c5.725-2.87,9.005-9.063,8.155-15.402
	C511.001,147.773,506.213,142.664,499.932,141.419z"/>
<path style="fill:#FEA832;" d="M345.225,166.873c-0.601-0.601-1.2-1.2-1.799-1.5c-64.469-62.968-167.619-62.368-231.488,1.5
	L48.37,230.441c-64.467,64.467-64.467,168.817,0,232.985c32.084,32.385,74.365,48.576,116.643,48.576
	c41.98,0,84.259-16.191,116.643-48.576l63.569-63.569C409.693,335.39,409.693,231.04,345.225,166.873z"/>
<path style="fill:#FE8821;" d="M345.225,399.857l-63.569,63.569c-32.385,32.385-74.663,48.576-116.643,48.576
	c-42.278,0-84.559-16.191-116.643-48.576l293.557-296.554l1.499-1.5c0.599,0.3,1.198,0.901,1.799,1.5
	C409.693,231.04,409.693,335.39,345.225,399.857z"/>
<g>
	<path style="fill:#FEDB41;" d="M254.969,270.921v29.985c0,8.396-6.597,14.993-14.993,14.993c-8.396,0-14.993-6.597-14.993-14.993
		v-14.993h-14.993c-8.396,0-14.993-6.597-14.993-14.993s6.597-14.993,14.993-14.993h29.985c3.898,0,7.496,1.499,10.195,3.598
		c0.01,0.01,0.01,0.01,0.02,0.02C253.18,262.545,254.969,266.433,254.969,270.921z"/>
	<path style="fill:#FEDB41;" d="M314.94,210.95v29.985c0,8.396-6.597,14.993-14.993,14.993c-8.396,0-14.993-6.597-14.993-14.993
		v-14.993h-14.993c-0.3,0-0.3,0-0.3,0c-8.396-0.3-14.693-6.597-14.693-14.993s6.597-14.993,14.993-14.993h29.985
		c3.598,0,6.897,1.499,9.595,3.598c0.01,0.01,0.01,0.01,0.02,0.02c0.29,0.29,0.59,0.59,0.88,0.88
		C313.141,203.154,314.94,206.752,314.94,210.95z"/>
	<path style="fill:#FEDB41;" d="M194.999,330.891v29.985c0,8.396-6.597,14.993-14.993,14.993c-8.396,0-14.993-6.597-14.993-14.993
		v-14.993h-14.993c-8.396,0-14.993-6.597-14.993-14.993c0-8.396,6.597-14.993,14.993-14.993h29.985
		c4.198,0,7.796,1.499,10.495,3.898c0.01,0.01,0.02,0.02,0.02,0.03C193.21,322.825,194.999,326.703,194.999,330.891z"/>
	<path style="fill:#FEDB41;" d="M135.028,390.862v29.985c0,8.396-6.597,14.993-14.993,14.993s-14.993-6.597-14.993-14.993v-14.993
		H90.05c-8.396,0-14.993-6.597-14.993-14.993s6.597-14.993,14.993-14.993h29.985c4.198,0,7.796,1.799,10.795,4.198
		c0.01,0.01,0.02,0.02,0.02,0.03C133.239,383.086,135.028,386.674,135.028,390.862z"/>
</g>
<g>
	<path style="fill:#FCBF29;" d="M269.962,405.854c-8.287,0-14.993-6.706-14.993-14.993v-14.993h-14.993
		c-8.287,0-14.993-6.706-14.993-14.993s6.706-14.993,14.993-14.993h29.985c8.287,0,14.993,6.706,14.993,14.993v29.985
		C284.955,399.149,278.249,405.854,269.962,405.854z"/>
	<path style="fill:#FCBF29;" d="M329.933,345.884c-8.287,0-14.993-6.706-14.993-14.993v-14.993h-14.993
		c-8.287,0-14.993-6.706-14.993-14.993s6.706-14.993,14.993-14.993h29.985c8.287,0,14.993,6.706,14.993,14.993v29.985
		C344.925,339.178,338.22,345.884,329.933,345.884z"/>
	<path style="fill:#FCBF29;" d="M209.991,465.825c-8.287,0-14.993-6.706-14.993-14.993V435.84h-14.993
		c-8.287,0-14.993-6.706-14.993-14.993c0-8.287,6.706-14.993,14.993-14.993h29.985c8.287,0,14.993,6.706,14.993,14.993v29.985
		C224.984,459.119,218.278,465.825,209.991,465.825z"/>
</g>
<g>
	<path style="fill:#FEDB41;" d="M150.021,285.913c-8.287,0-14.993-6.706-14.993-14.993v-14.993h-14.993
		c-8.287,0-14.993-6.706-14.993-14.993s6.706-14.993,14.993-14.993h29.985c8.287,0,14.993,6.706,14.993,14.993v29.985
		C165.013,279.208,158.308,285.913,150.021,285.913z"/>
	<path style="fill:#FEDB41;" d="M209.991,225.943c-8.287,0-14.993-6.706-14.993-14.993v-14.993h-14.993
		c-8.287,0-14.993-6.706-14.993-14.993c0-8.287,6.706-14.993,14.993-14.993h29.985c8.287,0,14.993,6.706,14.993,14.993v29.985
		C224.984,219.237,218.278,225.943,209.991,225.943z"/>
	<path style="fill:#FEDB41;" d="M90.05,345.884c-8.287,0-14.993-6.706-14.993-14.993v-14.993H60.065
		c-8.287,0-14.993-6.706-14.993-14.993s6.706-14.993,14.993-14.993H90.05c8.287,0,14.993,6.706,14.993,14.993v29.985
		C105.043,339.178,98.337,345.884,90.05,345.884z"/>
</g>
<g>
	<path style="fill:#FCBF29;" d="M130.85,380.097c2.389,2.989,4.178,6.577,4.178,10.765v29.985c0,8.396-6.597,14.993-14.993,14.993
		s-14.993-6.597-14.993-14.993v-14.673L130.85,380.097z"/>
	<path style="fill:#FCBF29;" d="M190.521,319.827c2.689,2.999,4.478,6.877,4.478,11.065v29.985c0,8.396-6.597,14.993-14.993,14.993
		c-8.396,0-14.993-6.597-14.993-14.993v-14.993h-0.29L190.521,319.827z"/>
	<path style="fill:#FCBF29;" d="M250.192,259.546c2.989,2.999,4.778,6.887,4.778,11.374v29.985c0,8.396-6.597,14.993-14.993,14.993
		c-8.396,0-14.993-6.597-14.993-14.993v-14.993h-0.9L250.192,259.546z"/>
	<path style="fill:#FCBF29;" d="M314.94,210.95v29.985c0,8.396-6.597,14.993-14.993,14.993c-8.396,0-14.993-6.597-14.993-14.993
		v-14.993h-1.499l26.107-26.367c0.29,0.29,0.59,0.59,0.88,0.88C313.141,203.154,314.94,206.752,314.94,210.95z"/>
</g>
<g>
</g>
<g>
</g>
<g>
</g>
<g>
</g>
<g>
</g>
<g>
</g>
<g>
</g>
<g>
</g>
<g>
</g>
<g>
</g>
<g>
</g>
<g>
</g>
<g>
</g>
<g>
</g>
<g>
</g>
</svg>
