<?xml version="1.0" encoding="utf-8"?>
<!-- Generator: Adobe Illustrator 19.2.0, SVG Export Plug-In . SVG Version: 6.00 Build 0)  -->
<svg version="1.1" id="Capa_1" xmlns="http://www.w3.org/2000/svg" xmlns:xlink="http://www.w3.org/1999/xlink" x="0px" y="0px"
	 viewBox="0 0 512 512" style="enable-background:new 0 0 512 512;" xml:space="preserve">
<style type="text/css">
	.st0{opacity:0.45;}
	.st1{fill:#FF6536;}
	.st2{fill:#FF421D;}
	.st3{fill:#FFDB0C;}
	.st4{fill:#82D2FF;}
	.st5{fill:#08B7FC;}
	.st6{fill:#FBBF00;}
	.st7{fill:#F1F1F2;}
	.st8{fill:#E6E6E6;}
</style>
<g class="st0">
	<path class="st1" d="M459.3,357.8h-120V306c0-45.9-37.4-83.3-83.3-83.3s-83.3,37.4-83.3,83.3v51.7h-120V306
		c0-112.1,91.2-203.3,203.3-203.3S459.3,193.9,459.3,306V357.8z"/>
	<path class="st2" d="M256,102.7v120c45.9,0,83.3,37.4,83.3,83.3v51.7h120V306C459.3,193.9,368.1,102.7,256,102.7z"/>
	<path class="st3" d="M419.3,357.8h-40V306c0-68-55.3-123.3-123.3-123.3S132.7,238.1,132.7,306v51.7h-40V306
		c0-90,73.3-163.3,163.3-163.3S419.3,216,419.3,306V357.8z"/>
	<path class="st4" d="M256,182.7c-68,0-123.3,55.3-123.3,123.3v51.7h40V306c0-45.9,37.4-83.3,83.3-83.3s83.3,37.4,83.3,83.3v51.7h40
		V306C379.3,238.1,324,182.7,256,182.7z"/>
	<path class="st5" d="M256,182.7v40c45.9,0,83.3,37.4,83.3,83.3v51.7h40V306C379.3,238.1,324,182.7,256,182.7z"/>
	<path class="st6" d="M256,142.7v40c68,0,123.3,55.3,123.3,123.3v51.7h40V306C419.3,216,346,142.7,256,142.7z"/>
	<path class="st7" d="M163.5,316.4c-2.2,0-4.3,0.2-6.4,0.4c-9.4-22.4-31.5-38.1-57.3-38.1c-30.3,0-55.5,21.7-61,50.5
		C17.2,329.8,0,347.5,0,369.2c0,22.1,17.9,40.1,40.1,40.1h123.4c25.7,0,46.5-20.8,46.5-46.5C209.9,337.1,189.1,316.4,163.5,316.4z"
		/>
	<path class="st8" d="M465.5,316.4c-2.2,0-4.3,0.2-6.4,0.4c-9.4-22.4-31.5-38.1-57.3-38.1c-30.3,0-55.5,21.7-61,50.5
		c-21.5,0.7-38.8,18.4-38.8,40.1c0,22.1,17.9,40.1,40.1,40.1h123.4c25.7,0,46.5-20.8,46.5-46.5C512,337.1,491.2,316.4,465.5,316.4z"
		/>
</g>
</svg>
