<?xml version="1.0" encoding="iso-8859-1"?>
<!-- Generator: Adobe Illustrator 19.0.0, SVG Export Plug-In . SVG Version: 6.00 Build 0)  -->
<svg version="1.1" id="Layer_1" xmlns="http://www.w3.org/2000/svg" xmlns:xlink="http://www.w3.org/1999/xlink" x="0px" y="0px"
	 viewBox="0 0 512.002 512.002" style="enable-background:new 0 0 512.002 512.002;" xml:space="preserve">
<path style="fill:#EC7838;" d="M465.996,162.983l-116.382,0.305c-6.702,0-12.49-4.265-14.318-10.662L299.343,42.032
	c-7.006-20.717-24.98-31.381-42.957-31.686c-18.585-0.303-37.168,10.36-43.872,31.686l-35.95,110.593
	c-2.133,6.397-7.921,10.662-14.623,10.662l-116.077-0.305c-44.482,0-62.761,56.669-26.81,82.87l94.14,68.245
	c5.178,3.656,7.617,10.662,5.484,17.061L82.424,441.751c-13.709,42.044,34.732,77.079,70.377,50.878l102.976-74.946l0.61,0.303
	l102.367,74.643c35.95,26.201,84.087-8.834,70.377-50.878l-35.95-110.593c-2.133-6.399,0-13.405,5.484-17.061l94.142-68.245
	c13.101-9.445,19.194-23.154,19.194-36.865C512,185.833,494.329,162.983,465.996,162.983z"/>
<path style="fill:#DB632C;" d="M512,208.987c0,13.71-6.093,27.421-19.194,36.865l-94.142,68.245
	c-5.484,3.656-7.617,10.662-5.484,17.061l35.95,110.593c13.71,42.044-34.427,77.079-70.377,50.878l-102.367-74.643V10.346
	c17.976,0.305,35.95,10.969,42.957,31.686l35.952,110.593c1.828,6.397,7.617,10.662,14.318,10.662l116.382-0.305
	C494.329,162.983,512,185.833,512,208.987z"/>
<g>
	<path style="fill:#FFDE33;" d="M140.01,256.476c-1.562,0-3.139-0.238-4.701-0.743l-28.027-9.104
		c-19.248-6.261-9.604-35.185,9.402-28.979l28.027,9.104C161.131,232.095,157.206,256.476,140.01,256.476z"/>
	<path style="fill:#FFDE33;" d="M154.812,392.935l17.316-23.846c11.803-16.318,36.485,1.606,24.665,17.911l-17.316,23.846
		C167.685,427.038,142.959,409.286,154.812,392.935z"/>
</g>
<g>
	<path style="fill:#FFBC33;" d="M333.296,410.846L315.98,387c-11.803-16.282,12.774-34.231,24.665-17.911l17.316,23.846
		C369.814,409.286,345.089,427.038,333.296,410.846z"/>
	<path style="fill:#FFBC33;" d="M368.062,226.753l28.027-9.104c18.943-6.256,28.685,22.707,9.402,28.979l-28.027,9.104
		C358.074,262.011,349.168,232.899,368.062,226.753z"/>
</g>
<path style="fill:#FFDE33;" d="M309.093,245.852l-16.451,5.484c-5.178-7.312-12.592-12.492-21.123-15.538v-17.061
	c0-10.055-7.515-15.233-15.132-15.233c-7.617,0-15.233,5.178-15.233,15.233v17.061c-8.532,3.046-15.844,8.227-21.022,15.538
	l-16.451-5.484c-19.498-6.093-28.334,22.85-9.445,28.943l16.757,5.484c0.305,9.14,3.046,17.366,7.921,24.373l-10.36,14.318
	c-11.882,16.148,12.795,34.122,24.678,17.976l10.664-14.623c3.959,1.218,8.225,1.828,12.49,1.828c4.265,0,8.532-0.61,12.49-1.828
	l10.664,14.623c11.882,16.146,36.56-1.828,24.678-17.976l-10.36-14.318c4.876-7.006,7.617-15.233,7.921-24.373l16.757-5.484
	C337.731,268.702,328.287,239.759,309.093,245.852z M256.387,293.685c-8.532,0-15.233-6.704-15.233-15.233
	c0-8.227,6.702-15.233,15.233-15.233c8.532,0,15.233,7.006,15.233,15.233C271.62,286.981,264.918,293.685,256.387,293.685z"/>
<path style="fill:#FFBC33;" d="M318.537,274.796l-16.757,5.484c-0.305,9.14-3.046,17.366-7.921,24.373l10.36,14.318
	c11.882,16.148-12.795,34.122-24.678,17.976l-10.664-14.623c-3.959,1.218-8.225,1.828-12.49,1.828v-30.466
	c8.532,0,15.233-6.704,15.233-15.233c0-8.227-6.702-15.233-15.233-15.233v-59.715c7.617,0,15.132,5.178,15.132,15.233v17.061
	c8.532,3.046,15.945,8.227,21.123,15.538l16.451-5.484C328.287,239.759,337.731,268.702,318.537,274.796z"/>
<path style="fill:#FFDE33;" d="M271.518,127.338v29.249c0,10.053-7.515,15.233-15.132,15.233c-7.617,0-15.233-5.18-15.233-15.233
	v-29.249c0-10.055,7.617-15.233,15.233-15.233C264.003,112.105,271.518,117.283,271.518,127.338z"/>
<path style="fill:#FFBC33;" d="M271.518,127.338v29.249c0,10.053-7.515,15.233-15.132,15.233v-59.715
	C264.003,112.105,271.518,117.283,271.518,127.338z"/>
<g>
</g>
<g>
</g>
<g>
</g>
<g>
</g>
<g>
</g>
<g>
</g>
<g>
</g>
<g>
</g>
<g>
</g>
<g>
</g>
<g>
</g>
<g>
</g>
<g>
</g>
<g>
</g>
<g>
</g>
</svg>
