<?xml version="1.0" encoding="iso-8859-1"?>
<!-- Generator: Adobe Illustrator 19.0.0, SVG Export Plug-In . SVG Version: 6.00 Build 0)  -->
<svg version="1.1" id="Layer_1" xmlns="http://www.w3.org/2000/svg" xmlns:xlink="http://www.w3.org/1999/xlink" x="0px" y="0px"
	 viewBox="0 0 512 512" style="enable-background:new 0 0 512 512;" xml:space="preserve">
<path style="fill:#FF0536;" d="M315.827,94.16c-23.093-53.198-46.032-86.115-46.996-87.491C265.897,2.489,261.11,0,256.002,0
	c-5.107,0-9.895,2.489-12.828,6.67c-0.965,1.375-23.905,34.293-46.998,87.491c-21.324,49.125-46.745,125.572-46.745,210.79
	c0,63.883,13.819,130.257,41.074,197.28c1.938,4.77,6.098,8.284,11.126,9.398c1.125,0.25,2.262,0.371,3.392,0.371
	c3.914,0,7.734-1.467,10.663-4.187l40.316-37.426l40.313,37.426c3.775,3.505,9.031,4.928,14.056,3.815
	c5.027-1.114,9.188-4.628,11.127-9.398c27.253-67.023,41.073-133.397,41.073-197.28C362.571,219.732,337.151,143.285,315.827,94.16z
	"/>
<path style="fill:#E70020;" d="M315.827,94.16c-23.093-53.198-46.032-86.115-46.996-87.491C265.897,2.489,261.11,0,256.002,0h-0.001
	v470.388l0.001-0.001l40.313,37.426c3.775,3.505,9.031,4.928,14.056,3.815c5.027-1.114,9.188-4.628,11.127-9.398
	c27.253-67.023,41.073-133.397,41.073-197.28C362.571,219.732,337.151,143.285,315.827,94.16z"/>
<path style="fill:#6B77E8;" d="M356.467,230.977c-3.213-19.93-7.492-38.932-12.363-56.695l-77.066-77.064
	c-6.12-6.121-16.044-6.121-22.165,0l-76.942,76.941c-4.877,17.766-9.163,36.772-12.381,56.71l100.405-100.403L356.467,230.977z"/>
<path style="fill:#FFC473;" d="M361.917,281.098l-94.833-94.832c-6.12-6.121-16.044-6.121-22.165,0l-94.835,94.835
	c-0.427,7.862-0.654,15.817-0.654,23.85c0,6.855,0.169,13.738,0.487,20.648l106.084-106.083l106.082,106.081
	c0.318-6.909,0.487-13.793,0.487-20.646C362.571,296.916,362.344,288.961,361.917,281.098z"/>
<path style="fill:#FF7A53;" d="M256.002,270.725c-4.158,0-8.144,1.651-11.082,4.591l-91.299,91.301
	c1.679,12.527,3.865,25.126,6.552,37.779l95.831-95.832l95.829,95.83c2.685-12.655,4.872-25.252,6.553-37.779l-91.298-91.299
	C264.145,272.376,260.158,270.725,256.002,270.725z"/>
<path style="fill:#4B5BE4;" d="M344.104,174.282l-77.066-77.064c-2.842-2.842-6.506-4.348-10.225-4.549v38.655l99.655,99.654
	C353.254,211.045,348.976,192.045,344.104,174.282z"/>
<path style="fill:#FFA81F;" d="M362.571,304.951c0-8.034-0.227-15.99-0.654-23.853l-94.833-94.832
	c-2.854-2.854-6.535-4.36-10.271-4.552v38.612l105.271,105.27C362.401,318.688,362.571,311.804,362.571,304.951z"/>
<path style="fill:#FF4F19;" d="M351.83,404.394c2.685-12.655,4.872-25.252,6.553-37.779l-91.298-91.299
	c-2.746-2.748-6.41-4.35-10.271-4.551v38.611L351.83,404.394z"/>
<g>
</g>
<g>
</g>
<g>
</g>
<g>
</g>
<g>
</g>
<g>
</g>
<g>
</g>
<g>
</g>
<g>
</g>
<g>
</g>
<g>
</g>
<g>
</g>
<g>
</g>
<g>
</g>
<g>
</g>
</svg>
