<?xml version="1.0" encoding="utf-8"?>
<!-- Generator: Adobe Illustrator 19.2.0, SVG Export Plug-In . SVG Version: 6.00 Build 0)  -->
<svg version="1.1" id="Capa_1" xmlns="http://www.w3.org/2000/svg" xmlns:xlink="http://www.w3.org/1999/xlink" x="0px" y="0px"
	 viewBox="0 0 512 512" style="enable-background:new 0 0 512 512;" xml:space="preserve">
<style type="text/css">
	.st0{fill:#FFDAA8;}
	.st1{fill:#FFC473;}
	.st2{fill:#79D60D;}
	.st3{fill:#FFFFFF;}
	.st4{fill:#33BC00;}
</style>
<path class="st0" d="M463.3,342.9h-9c20.9,0.5,37.7,17.7,37.7,38.7c0,10.7-4.3,20.4-11.3,27.4c-7,7-16.7,11.3-27.4,11.3h-10
	c21.4,0,38.7,17.3,38.7,38.7c0,10.7-4.3,20.4-11.3,27.4c-7,7-16.7,11.3-27.4,11.3H279.9c-26.5,0-52.7-4.8-77.4-14l-72.4-27.1V267.1
	c7.6-29.2,30.6-72.3,99.4-90.4l29.9-63.4c5-11.4,7.5-23.7,7.5-36.2V14.2h58.5c23.4,13.9,39,39.5,39,68.7v105h108.7
	c21.4,0,38.7,17.3,38.7,38.7c0,10.7-4.3,20.4-11.3,27.4c-7,7-16.7,11.3-27.4,11.3h-10c21.4,0,38.7,17.3,38.7,38.7
	c0,10.7-4.3,20.4-11.3,27.4c-5.2,5.2-11.9,8.9-19.3,10.5C468.7,342.6,466,342.9,463.3,342.9z"/>
<path class="st1" d="M482,459c0,10.7-4.3,20.4-11.3,27.4c-7,7-16.7,11.3-27.4,11.3H279.9c-26.5,0-52.7-4.8-77.4-14l-72.4-27.1V342
	h341.2c-2.6,0.5-5.3,0.8-8.1,0.8h-9c20.9,0.5,37.7,17.7,37.7,38.7c0,10.7-4.3,20.4-11.3,27.4c-7,7-16.7,11.3-27.4,11.3h-10
	C464.7,420.3,482,437.6,482,459z"/>
<rect y="179.4" class="st2" width="141.5" height="316.7"/>
<rect x="56.2" y="215.4" class="st3" width="25" height="25"/>
<rect y="342" class="st4" width="141.5" height="154.1"/>
</svg>
