<?xml version="1.0" encoding="utf-8"?>
<!-- Generator: Adobe Illustrator 19.2.0, SVG Export Plug-In . SVG Version: 6.00 Build 0)  -->
<svg version="1.1" id="Capa_1" xmlns="http://www.w3.org/2000/svg" xmlns:xlink="http://www.w3.org/1999/xlink" x="0px" y="0px"
	 viewBox="0 0 512 512" style="enable-background:new 0 0 512 512;" xml:space="preserve">
<style type="text/css">
	.st0{opacity:0.45;fill:#08B7FC;}
	.st1{opacity:0.45;fill:#F1F1F2;}
	.st2{opacity:0.45;fill:#E6E6E6;}
	.st3{opacity:0.45;fill:#333333;}
	.st4{opacity:0.45;fill:#82D2FF;}
</style>
<path class="st0" d="M155.6,197.5l-0.2-38.3c45.6-7,80.6-46.4,80.6-94V42l-66.6,5.9C148.2,49.8,129.1,61.7,118,80l0,0l0,0
	C107,61.7,87.9,49.8,66.6,47.9L0,42v23.3c0,47.6,35,87,80.6,94l-0.2,38.3c0,105.6,75.9,193.5,176.2,212.1l80.8-0.3
	C436.9,390.2,512,302.6,512,197.5H155.6z"/>
<path class="st1" d="M337.4,409.4C436.9,390.2,512,302.6,512,197.5h-61.5l-8.1,24.1c-22.7,67.8-86.2,113.5-157.8,113.5l0,0v74.4
	L337.4,409.4z"/>
<path class="st2" d="M337.4,409.4C436.9,390.2,512,302.6,512,197.5c0,0-16.3,0-29.5,0c0,75.7-70.2,173.5-197.8,173.5v38.6
	L337.4,409.4z"/>
<circle class="st3" cx="365.2" cy="253.1" r="15.9"/>
<path class="st4" d="M264.9,324.9c0,0-29.6,77.7,1.3,145.1c88.1-31,76-145.1,76-145.1L264.9,324.9L264.9,324.9z"/>
</svg>
